<svg width="100" height="100" viewBox="0 0 100 100" fill="none" xmlns="http://www.w3.org/2000/svg">
<path d="M47.8787 82.3787L17.6213 52.1213C16.4497 50.9497 16.4497 49.0503 17.6213 47.8787L47.8787 17.6213C49.0503 16.4497 50.9497 16.4497 52.1213 17.6213L82.3787 47.8787C83.5503 49.0503 83.5503 50.9497 82.3787 52.1213L52.1213 82.3787C50.9497 83.5503 49.0503 83.5503 47.8787 82.3787Z" fill="#A8FF80" fill-opacity="0.5"/>
<path d="M21.5 20L22.5 19H44L45 20V23L44 24H40V51.5L65 26.5V24H61L60 23V20L61 19H84L84.5 19.5V23L31 76.5H27L26 75.5V24H22.5L21.5 23V20Z" fill="#4B4B4B"/>
<path d="M76.5 60.5L72 73.5L70 75.5H67L66 74H63.5L62 75.5H58.5L57 74H55L53.5 75.5H48.5L47 73.5L51 62H50L51 61H56.5L53.5 70.5H58L61 61.5H60L61 60.5H67L63.5 70.5H68L71 61.5H70L71 60.5H76.5Z" fill="#4B4B4B"/>
<path d="M21.5 20L22.5 19H44L45 20V23L44 24H40V51.5L65 26.5V24H61L60 23V20L61 19H84L84.5 19.5V23L31 76.5H27L26 75.5V24H22.5L21.5 23V20Z" stroke="#D0D3DC" stroke-width="2" stroke-linejoin="round"/>
<path d="M76.5 60.5L72 73.5L70 75.5H67L66 74H63.5L62 75.5H58.5L57 74H55L53.5 75.5H48.5L47 73.5L51 62H50L51 61H56.5L53.5 70.5H58L61 61.5H60L61 60.5H67L63.5 70.5H68L71 61.5H70L71 60.5H76.5Z" stroke="#D0D3DC" stroke-width="2" stroke-linejoin="round"/>
</svg>
