<svg width="72" height="72" viewBox="0 0 72 72" fill="none" xmlns="http://www.w3.org/2000/svg">
<path d="M34.3787 67.8787L4.12132 37.6213C2.94975 36.4497 2.94975 34.5503 4.12132 33.3787L34.3787 3.12132C35.5503 1.94975 37.4497 1.94975 38.6213 3.12132L68.8787 33.3787C70.0503 34.5503 70.0503 36.4497 68.8787 37.6213L38.6213 67.8787C37.4497 69.0503 35.5503 69.0503 34.3787 67.8787Z" fill="#A8FF80" fill-opacity="0.5"/>
<path d="M5 8L6 7H27.5L28.5 8V11L27.5 12H23.5V39.5L48.5 14.5V12H44.5L43.5 11V8L44.5 7H67.5L68 7.5V11L14.5 64.5H10.5L9.5 63.5V12H6L5 11V8Z" fill="#4B4B4B"/>
<path d="M60 48.5L55.5 61.5L53.5 63.5H50.5L49.5 62H47L45.5 63.5H42L40.5 62H38.5L37 63.5H32L30.5 61.5L34.5 50H33.5L34.5 49H40L37 58.5H41.5L44.5 49.5H43.5L44.5 48.5H50.5L47 58.5H51.5L54.5 49.5H53.5L54.5 48.5H60Z" fill="#4B4B4B"/>
<path d="M5 8L6 7H27.5L28.5 8V11L27.5 12H23.5V39.5L48.5 14.5V12H44.5L43.5 11V8L44.5 7H67.5L68 7.5V11L14.5 64.5H10.5L9.5 63.5V12H6L5 11V8Z" stroke="#D0D3DC" stroke-width="2" stroke-linejoin="round"/>
<path d="M60 48.5L55.5 61.5L53.5 63.5H50.5L49.5 62H47L45.5 63.5H42L40.5 62H38.5L37 63.5H32L30.5 61.5L34.5 50H33.5L34.5 49H40L37 58.5H41.5L44.5 49.5H43.5L44.5 48.5H50.5L47 58.5H51.5L54.5 49.5H53.5L54.5 48.5H60Z" stroke="#D0D3DC" stroke-width="2" stroke-linejoin="round"/>
</svg>
